<svg preserveAspectRatio="none" width="100%" height="100%" overflow="visible" style="display: block;" viewBox="0 0 44 44" fill="none" xmlns="http://www.w3.org/2000/svg">
<path id="Vector" d="M0 1.83333C0 0.82082 0.82082 0 1.83333 0C2.84585 0 3.66667 0.82082 3.66667 1.83333V40.3333H42.1667C43.1792 40.3333 44 41.1542 44 42.1667C44 43.1792 43.1792 44 42.1667 44H1.83333C0.82082 44 0 43.1792 0 42.1667V1.83333ZM40.3333 9.16667C40.3333 8.47225 39.941 7.83743 39.3199 7.52688C38.6987 7.21634 37.9556 7.28334 37.4 7.7L23.7104 17.9674L14.374 12.4753C13.8386 12.1604 13.1802 12.138 12.6246 12.4158L6.11111 15.6725V37.8889H40.3333V9.16667Z" fill="var(--fill-0, #FCFEFF)"/>
</svg>
